<svg id="Capa_1" data-name="Capa 1" xmlns="http://www.w3.org/2000/svg" viewBox="0 0 893 309"><title>Lixsa Logo</title><path d="M298.8,115.58h13.32V259H298.8Z"/><path d="M343.21,115.58a10.77,10.77,0,0,1,0,21.54,10.24,10.24,0,0,1-7.52-3.16,10.78,10.78,0,0,1,7.52-18.38Zm.05,39h0a6.71,6.71,0,0,1,6.71,6.71v90.9a6.72,6.72,0,0,1-6.71,6.71h0a6.71,6.71,0,0,1-6.71-6.71v-90.9A6.7,6.7,0,0,1,343.26,154.53Z"/><path d="M362.19,154.53h16.13l27.77,38.2,27.48-38.2h16.16l-35.55,49.33L454.24,259H437.87L406.09,215.1,374.48,259h-16L398,204Z"/><path d="M518.48,168l-8.21,8.49q-10.26-10-20-9.95a15.14,15.14,0,0,0-10.67,4.11,12.66,12.66,0,0,0-4.44,9.58,14.19,14.19,0,0,0,3.66,9.22q3.66,4.47,15.37,10.5,14.27,7.38,19.39,14.24a25.89,25.89,0,0,1,5,15.61A28,28,0,0,1,510,250.47Q501.39,259,488.5,259a37.44,37.44,0,0,1-16.41-3.75,35.5,35.5,0,0,1-12.94-10.31l8-9.13q9.79,11.05,20.77,11A18.73,18.73,0,0,0,501,241.89a15.26,15.26,0,0,0,5.39-11.6,14.87,14.87,0,0,0-3.56-9.76q-3.57-4.2-16.1-10.59-13.45-6.93-18.3-13.69a25.83,25.83,0,0,1-4.85-15.43A25.07,25.07,0,0,1,471.35,162q7.72-7.48,19.52-7.48Q504.58,154.53,518.48,168Z"/><path d="M641.4,157.09V256.4H628.8V239.33a54.82,54.82,0,0,1-18,14.7A48.81,48.81,0,0,1,588.91,259q-21.09,0-36-15.29T538,206.47A50.35,50.35,0,0,1,553,169.77a49.11,49.11,0,0,1,36.24-15.24,46.87,46.87,0,0,1,22.14,5.2,50.39,50.39,0,0,1,17.39,15.61V157.09Zm-51.08,9.76a38.57,38.57,0,0,0-34.05,20,40.22,40.22,0,0,0,0,40.12,39.23,39.23,0,0,0,14.45,14.91,37.83,37.83,0,0,0,19.47,5.33,39.9,39.9,0,0,0,19.88-5.29,37,37,0,0,0,14.45-14.31,40.92,40.92,0,0,0,5.06-20.34q0-17.22-11.35-28.81A37.62,37.62,0,0,0,590.32,166.85Z"/><path d="M685.71,235a11.4,11.4,0,0,1,11.41,11.5,11.11,11.11,0,0,1-3.34,8.11,11.29,11.29,0,0,1-16.13,0,11.58,11.58,0,0,1,0-16.27A11,11,0,0,1,685.71,235Z"/><path d="M767.75,154.53,816.45,259H805.17L788.75,224.6h-45L727.49,259H715.85l49.34-104.43Zm-1.32,22.19-17.9,37.8h35.7Z"/><path d="M827.73,154.53h10.44V259H827.73Z"/><polyline points="628.8 157.09 628.8 154.53 641.39 154.53 641.39 157.09"/><polyline points="628.8 256.4 628.8 258.96 641.39 258.96 641.39 256.4"/><polygon points="104.14 210.92 165.47 210.92 175.78 226.35 153.46 258.96 79.49 258.96 79.49 210.92 104.14 210.92"/><rect x="54.83" y="114.85" width="49.31" height="144.1" rx="3.74"/><rect x="54.83" y="50.04" width="49.31" height="59.18" rx="3.74"/><path d="M155.28,186.85c0-3.38,49.27-72,49.27-72h49.28l-49.28,72,49.28,72H204.55Z"/><polygon points="151.12 183.49 175.78 147.47 153.46 114.86 104.14 114.86 151.12 183.49"/><polyline points="165.47 210.92 151.25 190.14 137.02 210.92"/></svg>