<svg id="Capa_1" data-name="Capa 1" xmlns="http://www.w3.org/2000/svg" viewBox="0 0 716 253"><title>Lixsa Logo</title><path d="M49,44.35H64.23v164.3H49Z"/><path d="M99.87,44.35A11.84,11.84,0,0,1,108.59,48a12.29,12.29,0,0,1,0,17.42,12.29,12.29,0,0,1-21-8.66A12,12,0,0,1,91.24,48,11.73,11.73,0,0,1,99.87,44.35Zm0,44.64h0a7.69,7.69,0,0,1,7.69,7.69V200.83a7.69,7.69,0,0,1-7.69,7.69h0a7.69,7.69,0,0,1-7.69-7.69V96.68A7.69,7.69,0,0,1,99.92,89Z"/><path d="M121.61,89h18.48l31.82,43.77L203.4,89h18.52l-40.74,56.52,45.9,63.14H208.33l-36.42-50.26L135.7,208.65H117.32l45.34-63Z"/><path d="M300.7,104.36l-9.41,9.73q-11.76-11.4-23-11.4a17.4,17.4,0,0,0-12.22,4.7,14.55,14.55,0,0,0-5.08,11,16.26,16.26,0,0,0,4.19,10.56q4.2,5.13,17.61,12,16.35,8.47,22.22,16.32a29.69,29.69,0,0,1,5.77,17.89A32.12,32.12,0,0,1,291,198.92q-9.85,9.74-24.62,9.73a43,43,0,0,1-18.8-4.29,40.88,40.88,0,0,1-14.83-11.82l9.21-10.46q11.22,12.66,23.8,12.65a21.46,21.46,0,0,0,15-5.64q6.18-5.66,6.19-13.29a17.06,17.06,0,0,0-4.09-11.19q-4.1-4.8-18.45-12.13-15.42-7.95-21-15.69a29.53,29.53,0,0,1-5.56-17.68q0-13,8.85-21.55T269.06,89Q284.78,89,300.7,104.36Z"/><path d="M441.54,91.91V205.72H427.11V186.16A62.84,62.84,0,0,1,406.45,203a56,56,0,0,1-25.05,5.65q-24.16,0-41.26-17.52T323,148.5a57.72,57.72,0,0,1,17.26-42Q357.56,89,381.82,89a53.64,53.64,0,0,1,25.36,6,57.64,57.64,0,0,1,19.93,17.88V91.91ZM383,103.1A44.14,44.14,0,0,0,344,126a46.06,46.06,0,0,0,.05,46A44.88,44.88,0,0,0,360.61,189a43.21,43.21,0,0,0,22.31,6.11,45.69,45.69,0,0,0,22.77-6.06,42.4,42.4,0,0,0,16.56-16.4,46.78,46.78,0,0,0,5.8-23.3q0-19.74-13-33T383,103.1Z"/><path d="M492.33,181.23A13.06,13.06,0,0,1,505.4,194.4a12.72,12.72,0,0,1-3.83,9.3,13,13,0,0,1-18.49,0,13.29,13.29,0,0,1,0-18.65A12.59,12.59,0,0,1,492.33,181.23Z"/><path d="M586.33,89l55.8,119.66H629.21l-18.82-39.38H558.84L540.2,208.65H526.86L583.4,89Zm-1.52,25.42-20.5,43.31h40.91Z"/><path d="M655.06,89h12V208.65h-12Z"/><polyline points="427.11 91.91 427.11 88.98 441.55 88.98 441.55 91.91"/><polyline points="427.11 205.72 427.11 208.65 441.55 208.65 441.55 205.72"/></svg>